<svg width="39" height="38" viewBox="0 0 39 38" fill="none" xmlns="http://www.w3.org/2000/svg">
<path fill-rule="evenodd" clip-rule="evenodd" d="M6.5 0C3.18629 0 0.5 2.68629 0.5 6V32C0.5 35.3137 3.18629 38 6.5 38H32.5C35.8137 38 38.5 35.3137 38.5 32V6C38.5 2.68629 35.8137 0 32.5 0H6.5ZM14.8386 10.66C14.4171 10.2381 13.8453 10.0008 13.2489 10.0003C12.6522 10.0003 12.0799 10.2373 11.658 10.6593C11.236 11.0813 10.9989 11.6535 10.9989 12.2503V25.7503C10.99 26.0513 11.0415 26.351 11.1505 26.6317C11.2595 26.9124 11.4237 27.1684 11.6334 27.3845C11.8431 27.6005 12.0941 27.7723 12.3714 27.8896C12.6488 28.0069 12.9468 28.0674 13.2479 28.0674C13.5491 28.0674 13.8471 28.0069 14.1244 27.8896C14.4018 27.7723 14.6527 27.6005 14.8625 27.3845C15.0722 27.1684 15.2364 26.9124 15.3454 26.6317C15.4544 26.351 15.5059 26.0513 15.4969 25.7503V12.2503C15.4969 11.6539 15.2602 11.0819 14.8386 10.66ZM21.3386 14.66C20.9171 14.2381 20.3453 14.0008 19.7489 14.0003C19.1522 14.0003 18.5799 14.2373 18.158 14.6593C17.736 15.0813 17.4989 15.6535 17.4989 16.2503V25.7503C17.49 26.0513 17.5415 26.351 17.6505 26.6317C17.7595 26.9124 17.9237 27.1684 18.1334 27.3845C18.3431 27.6005 18.5941 27.7723 18.8714 27.8896C19.1488 28.0069 19.4468 28.0674 19.7479 28.0674C20.0491 28.0674 20.3471 28.0069 20.6244 27.8896C20.9018 27.7723 21.1527 27.6005 21.3625 27.3845C21.5722 27.1684 21.7364 26.9124 21.8454 26.6317C21.9544 26.351 22.0059 26.0513 21.9969 25.7503V16.2503C21.9969 15.6539 21.7602 15.0819 21.3386 14.66ZM27.8386 18.66C27.4171 18.2381 26.8453 18.0008 26.2489 18.0003C25.9534 18.0002 25.6608 18.0583 25.3877 18.1713C25.1147 18.2843 24.8666 18.45 24.6577 18.659C24.4487 18.868 24.283 19.116 24.1699 19.3891C24.0569 19.6621 23.9988 19.9548 23.9989 20.2503V25.7503C23.99 26.0513 24.0415 26.351 24.1505 26.6317C24.2595 26.9124 24.4237 27.1684 24.6334 27.3845C24.8431 27.6005 25.0941 27.7723 25.3714 27.8896C25.6488 28.0069 25.9468 28.0674 26.2479 28.0674C26.5491 28.0674 26.8471 28.0069 27.1244 27.8896C27.4018 27.7723 27.6527 27.6005 27.8625 27.3845C28.0722 27.1684 28.2364 26.9124 28.3454 26.6317C28.4544 26.351 28.5059 26.0513 28.4969 25.7503V20.2503C28.4969 19.6539 28.2602 19.0819 27.8386 18.66Z" fill="#DF3A33"/>
</svg>
