<svg width="68" height="68" viewBox="0 0 68 68" fill="none" xmlns="http://www.w3.org/2000/svg">
<path fill-rule="evenodd" clip-rule="evenodd" d="M6 0C2.68628 0 0 2.68628 0 6V62C0 65.3137 2.68628 68 6 68H62C65.3137 68 68 65.3137 68 62V6C68 2.68628 65.3137 0 62 0H6ZM33 21C39.764 21 45.3633 25.9586 46.1936 32.3508C47.8478 32.7469 49.3186 33.6733 50.3711 34.9821C51.4236 36.2909 51.9971 37.9067 52 39.5714C52 43.6683 48.5914 47 44.4 47H23.5C18.2617 47 14 42.8345 14 37.7142C14 33.6658 17.0571 29.8994 21.1383 28.7072C23.215 23.9918 27.7636 21 33 21ZM34.9 43.2858V37.7142H40.6L33 28.4286L25.4 37.7142H31.1V43.2858H34.9Z" fill="#02A4FF" fill-opacity="0.7"/>
</svg>
