<svg width="39" height="38" viewBox="0 0 39 38" fill="none" xmlns="http://www.w3.org/2000/svg">
<path fill-rule="evenodd" clip-rule="evenodd" d="M6.5 0C3.18629 0 0.5 2.68629 0.5 6V32C0.5 35.3137 3.18629 38 6.5 38H32.5C35.8137 38 38.5 35.3137 38.5 32V6C38.5 2.68629 35.8137 0 32.5 0H6.5ZM16.3529 22.0002C16.4629 23.1802 17.2729 24.1002 19.3329 24.1002C21.5429 24.1002 22.0329 23.0002 22.0329 22.3102C22.0329 21.3802 21.5329 20.5002 19.0329 19.9002C16.2429 19.2302 14.3329 18.0802 14.3329 15.7702C14.3329 13.8402 15.8929 12.5802 17.8329 12.1602V10.0002H20.8329V12.1902C22.9229 12.7002 23.9729 14.2802 24.0429 16.0002H21.8329C21.7729 14.7502 21.1129 13.9002 19.3329 13.9002C17.6429 13.9002 16.6329 14.6602 16.6329 15.7502C16.6329 16.7002 17.3629 17.3102 19.6329 17.9002C21.9029 18.4902 24.3329 19.4602 24.3329 22.3002C24.3329 24.3502 22.7829 25.4802 20.8329 25.8502V28.0002H17.8329V25.8302C15.9129 25.4202 14.2729 24.1902 14.1529 22.0002H16.3529Z" fill="#1E75D9"/>
</svg>
