<svg width="39" height="38" viewBox="0 0 39 38" fill="none" xmlns="http://www.w3.org/2000/svg">
<path fill-rule="evenodd" clip-rule="evenodd" d="M6.5 0C3.18629 0 0.5 2.68629 0.5 6V32C0.5 35.3137 3.18629 38 6.5 38H32.5C35.8137 38 38.5 35.3137 38.5 32V6C38.5 2.68629 35.8137 0 32.5 0H6.5ZM23.3268 9.7592C24.5402 10.2619 25.6424 10.9993 26.57 11.9292C27.4999 12.8568 28.2374 13.959 28.7401 15.1725C29.2427 16.386 29.5006 17.6868 29.499 19.0002C29.5025 20.314 29.2454 21.6154 28.7427 22.8291C28.2399 24.0428 27.5015 25.1448 26.57 26.0712C24.681 27.9602 22.169 29.0002 19.499 29.0002C16.829 29.0002 14.317 27.9602 12.428 26.0712C10.539 24.1822 9.49902 21.6702 9.49902 19.0002C9.49902 16.3302 10.539 13.8182 12.428 11.9292C13.3545 10.9978 14.4565 10.2593 15.6702 9.75659C16.8839 9.25383 18.1853 8.99676 19.499 9.00025C20.8125 8.99863 22.1133 9.25655 23.3268 9.7592ZM19.499 27.0002C21.636 27.0002 23.645 26.1682 25.156 24.6572C25.9012 23.9161 26.492 23.0345 26.8941 22.0634C27.2963 21.0924 27.5019 20.0513 27.499 19.0002H19.499V11.0002C18.448 10.9974 17.4069 11.203 16.4358 11.6051C15.4648 12.0073 14.5832 12.5981 13.842 13.3432C12.331 14.8542 11.499 16.8632 11.499 19.0002C11.499 21.1372 12.331 23.1462 13.842 24.6572C15.353 26.1682 17.362 27.0002 19.499 27.0002Z" fill="#D97818"/>
</svg>
