<svg width="52" height="26" viewBox="0 0 52 26" fill="none" xmlns="http://www.w3.org/2000/svg">
<path d="M2.448 25.192C1.872 25.192 1.37067 24.9893 0.944 24.584C0.538667 24.1573 0.336 23.656 0.336 23.08C0.336 22.504 0.538667 22.0133 0.944 21.608C1.37067 21.1813 1.872 20.968 2.448 20.968C3.024 20.968 3.51467 21.1813 3.92 21.608C4.34667 22.0133 4.56 22.504 4.56 23.08C4.56 23.656 4.34667 24.1573 3.92 24.584C3.51467 24.9893 3.024 25.192 2.448 25.192ZM6.25825 9.832H9.49025L12.9143 21.16H12.9783L16.5943 9.832H19.6343L23.4743 21.16H23.5382L26.8023 9.832H29.8423L24.9463 25H22.0343L18.0343 13.672H17.9703L14.3542 25H11.2503L6.25825 9.832ZM33.5395 18.472C33.5395 19.1333 33.6782 19.7413 33.9555 20.296C34.2542 20.8293 34.6382 21.288 35.1075 21.672C35.5768 22.056 36.1208 22.3547 36.7395 22.568C37.3582 22.7813 37.9982 22.888 38.6595 22.888C39.5555 22.888 40.3342 22.6853 40.9955 22.28C41.6568 21.8533 42.2648 21.2987 42.8195 20.616L44.9955 22.28C43.3955 24.3493 41.1555 25.384 38.2755 25.384C37.0808 25.384 35.9928 25.1813 35.0115 24.776C34.0515 24.3707 33.2302 23.816 32.5475 23.112C31.8862 22.3867 31.3742 21.544 31.0115 20.584C30.6488 19.6027 30.4675 18.5467 30.4675 17.416C30.4675 16.2853 30.6595 15.24 31.0435 14.28C31.4488 13.2987 31.9928 12.456 32.6755 11.752C33.3795 11.0267 34.2115 10.4613 35.1715 10.056C36.1315 9.65067 37.1768 9.448 38.3075 9.448C39.6515 9.448 40.7822 9.68267 41.6995 10.152C42.6382 10.6213 43.4062 11.24 44.0035 12.008C44.6008 12.7547 45.0275 13.608 45.2835 14.568C45.5608 15.5067 45.6995 16.4667 45.6995 17.448V18.472H33.5395ZM42.6275 16.168C42.6062 15.528 42.4995 14.9413 42.3075 14.408C42.1368 13.8747 41.8702 13.416 41.5075 13.032C41.1448 12.6267 40.6862 12.3173 40.1315 12.104C39.5982 11.8693 38.9688 11.752 38.2435 11.752C37.5395 11.752 36.8888 11.8907 36.2915 12.168C35.7155 12.424 35.2248 12.7653 34.8195 13.192C34.4142 13.6187 34.0942 14.0987 33.8595 14.632C33.6462 15.144 33.5395 15.656 33.5395 16.168H42.6275ZM48.3688 0.807999H51.2488V25H48.3688V0.807999Z" fill="#02A4FF"/>
</svg>
