<svg width="464" height="464" viewBox="0 0 464 464" fill="none" xmlns="http://www.w3.org/2000/svg">
<rect width="464" height="464" fill="white"/>
<rect width="464" height="464" fill="white"/>
<path d="M82.298 286.092C79.022 286.092 76.1707 284.939 73.744 282.634C71.4387 280.207 70.286 277.356 70.286 274.08C70.286 270.804 71.4387 268.013 73.744 265.708C76.1707 263.281 79.022 262.068 82.298 262.068C85.574 262.068 88.3647 263.281 90.67 265.708C93.0967 268.013 94.31 270.804 94.31 274.08C94.31 277.356 93.0967 280.207 90.67 282.634C88.3647 284.939 85.574 286.092 82.298 286.092ZM108.656 198.732H127.038L146.512 263.16H146.876L167.442 198.732H184.732L206.572 263.16H206.936L225.5 198.732H242.79L214.944 285H198.382L175.632 220.572H175.268L154.702 285H137.048L108.656 198.732ZM268.506 247.872C268.506 251.633 269.295 255.091 270.872 258.246C272.571 261.279 274.755 263.888 277.424 266.072C280.093 268.256 283.187 269.955 286.706 271.168C290.225 272.381 293.865 272.988 297.626 272.988C302.722 272.988 307.151 271.835 310.912 269.53C314.673 267.103 318.131 263.949 321.286 260.066L333.662 269.53C324.562 281.299 311.822 287.184 295.442 287.184C288.647 287.184 282.459 286.031 276.878 283.726C271.418 281.421 266.747 278.266 262.864 274.262C259.103 270.137 256.191 265.344 254.128 259.884C252.065 254.303 251.034 248.297 251.034 241.866C251.034 235.435 252.126 229.49 254.31 224.03C256.615 218.449 259.709 213.656 263.592 209.652C267.596 205.527 272.328 202.311 277.788 200.006C283.248 197.701 289.193 196.548 295.624 196.548C303.268 196.548 309.699 197.883 314.916 200.552C320.255 203.221 324.623 206.74 328.02 211.108C331.417 215.355 333.844 220.208 335.3 225.668C336.877 231.007 337.666 236.467 337.666 242.048V247.872H268.506ZM320.194 234.768C320.073 231.128 319.466 227.791 318.374 224.758C317.403 221.725 315.887 219.116 313.824 216.932C311.761 214.627 309.153 212.867 305.998 211.654C302.965 210.319 299.385 209.652 295.26 209.652C291.256 209.652 287.555 210.441 284.158 212.018C280.882 213.474 278.091 215.415 275.786 217.842C273.481 220.269 271.661 222.999 270.326 226.032C269.113 228.944 268.506 231.856 268.506 234.768H320.194ZM357.535 147.408H373.915V285H357.535V147.408Z" fill="#02A4FF"/>
</svg>
