<svg width="39" height="38" viewBox="0 0 39 38" fill="none" xmlns="http://www.w3.org/2000/svg">
<path fill-rule="evenodd" clip-rule="evenodd" d="M6.5 0C3.18629 0 0.5 2.68629 0.5 6V32C0.5 35.3137 3.18629 38 6.5 38H32.5C35.8137 38 38.5 35.3137 38.5 32V6C38.5 2.68629 35.8137 0 32.5 0H6.5ZM21.6171 15.5802L19.1671 14.0902L16.6671 15.5802L17.3471 12.7702L15.1671 10.8902L18.0371 10.6402L19.1671 8.00021L20.2771 10.6402L23.1671 10.8902L20.9671 12.7702L21.6171 15.5802ZM16.1671 17.0002V30.0002H22.1671V17.0002H16.1671ZM8.16706 30.0002V24.0002H14.1671V30.0002H8.16706ZM10.1671 28.0002H12.1671V26.0002H10.1671V28.0002ZM24.1671 30.0002V20.0002H30.1671V30.0002H24.1671ZM26.1671 28.0002H28.1671V22.0002H26.1671V28.0002Z" fill="#7B61FF"/>
</svg>
