<svg width="68" height="68" viewBox="0 0 68 68" fill="none" xmlns="http://www.w3.org/2000/svg">
<path fill-rule="evenodd" clip-rule="evenodd" d="M6 0C2.68628 0 0 2.68628 0 6V62C0 65.3137 2.68628 68 6 68H62C65.3137 68 68 65.3137 68 62V6C68 2.68628 65.3137 0 62 0H6ZM27.3347 18.3347C27.1204 18.5491 27 18.8397 27 19.1428C27 19.4459 27.1204 19.7367 27.3347 19.9509C27.5491 20.1653 27.8398 20.2858 28.1429 20.2858H37.2857C37.5888 20.2858 37.8795 20.1653 38.0938 19.9509C38.3082 19.7367 38.4286 19.4459 38.4286 19.1428C38.4286 18.8397 38.3082 18.5491 38.0938 18.3347C37.8795 18.1204 37.5888 18 37.2857 18H28.1429C27.8398 18 27.5491 18.1204 27.3347 18.3347ZM32.7143 50C36.3516 50 39.8398 48.5551 42.4117 45.9832C44.9837 43.4113 46.4286 39.923 46.4286 36.2858C46.4286 32.6484 44.9837 29.1602 42.4117 26.5883C39.8398 24.0164 36.3516 22.5714 32.7143 22.5714C29.077 22.5714 25.5887 24.0164 23.0168 26.5883C20.4449 29.1602 19 32.6484 19 36.2858C19 39.923 20.4449 43.4113 23.0168 45.9832C25.5887 48.5551 29.077 50 32.7143 50ZM32.7143 27.1428C33.0174 27.1428 33.3081 27.2633 33.5224 27.4775C33.7368 27.6919 33.8571 27.9827 33.8571 28.2858V37.4286C33.8571 37.7317 33.7368 38.0223 33.5224 38.2367C33.3081 38.451 33.0174 38.5714 32.7143 38.5714C32.4112 38.5714 32.1205 38.451 31.9062 38.2367C31.6918 38.0223 31.5714 37.7317 31.5714 37.4286V28.2858C31.5714 27.9827 31.6918 27.6919 31.9062 27.4775C32.1205 27.2633 32.4112 27.1428 32.7143 27.1428ZM43.6646 21.4971C43.804 21.557 43.9301 21.644 44.0355 21.7532L47.2424 24.9601C47.3515 25.0654 47.4385 25.1915 47.4985 25.3311C47.5583 25.4705 47.5899 25.6204 47.5912 25.7722C47.5921 25.8734 47.5795 25.974 47.5541 26.0715C47.5413 26.1202 47.5253 26.1681 47.5062 26.2148C47.4487 26.3553 47.3638 26.4829 47.2565 26.5902C47.1492 26.6975 47.0216 26.7823 46.8812 26.8398C46.7407 26.8973 46.5902 26.9263 46.4385 26.9249C46.2867 26.9236 46.1367 26.8921 45.9973 26.8322C45.8579 26.7722 45.7318 26.6852 45.6263 26.576L42.4195 23.3691C42.3104 23.2638 42.2233 23.1377 42.1634 22.9983C42.1265 22.9124 42.1003 22.8224 42.0854 22.7306C42.076 22.6733 42.0711 22.6154 42.0706 22.5571C42.0693 22.4054 42.0982 22.2549 42.1557 22.1144C42.2131 21.974 42.298 21.8463 42.4053 21.739C42.5126 21.6317 42.6403 21.5469 42.7807 21.4894C42.9211 21.4319 43.0717 21.4031 43.2234 21.4043C43.3751 21.4056 43.5251 21.4371 43.6646 21.4971Z" fill="#02A4FF" fill-opacity="0.7"/>
</svg>
